<svg width="67" height="62" viewBox="0 0 67 62" fill="none" xmlns="http://www.w3.org/2000/svg">
<rect width="67" height="62" rx="10" fill="#9ABC05"/>
<path d="M49.4503 33.4653L24.5354 49.1828C21.5994 51.0377 17 49.5302 17 46.7151V15.28C16.9993 14.65 17.2504 14.0332 17.7233 13.5034C18.1962 12.9736 18.8708 12.5534 19.6664 12.293C20.462 12.0326 21.3449 11.9431 22.2092 12.0352C23.0736 12.1273 23.8828 12.3971 24.5399 12.8123L49.4458 28.5298C49.9339 28.8374 50.3252 29.2168 50.5932 29.6424C50.8613 30.068 51 30.5301 51 30.9976C51 31.465 50.8613 31.9271 50.5932 32.3527C50.3252 32.7783 49.9339 33.1577 49.4458 33.4653H49.4503Z" fill="white"/>
</svg>
