<svg width="67" height="62" viewBox="0 0 67 62" fill="none" xmlns="http://www.w3.org/2000/svg">
<rect width="67" height="62" rx="10" fill="#9ABC05"/>
<path d="M19 21.3889C19 21.0205 19.1633 20.6673 19.454 20.4068C19.7447 20.1463 20.1389 20 20.55 20H39.15C39.5611 20 39.9553 20.1463 40.246 20.4068C40.5367 20.6673 40.7 21.0205 40.7 21.3889C40.7 21.7572 40.5367 22.1105 40.246 22.371C39.9553 22.6314 39.5611 22.7778 39.15 22.7778H20.55C20.1389 22.7778 19.7447 22.6314 19.454 22.371C19.1633 22.1105 19 21.7572 19 21.3889ZM19 26.9444C19 26.5761 19.1633 26.2228 19.454 25.9624C19.7447 25.7019 20.1389 25.5556 20.55 25.5556H39.15C39.5611 25.5556 39.9553 25.7019 40.246 25.9624C40.5367 26.2228 40.7 26.5761 40.7 26.9444C40.7 27.3128 40.5367 27.6661 40.246 27.9265C39.9553 28.187 39.5611 28.3333 39.15 28.3333H20.55C20.1389 28.3333 19.7447 28.187 19.454 27.9265C19.1633 27.6661 19 27.3128 19 26.9444ZM19 32.5C19 32.1316 19.1633 31.7784 19.454 31.5179C19.7447 31.2574 20.1389 31.1111 20.55 31.1111H39.15C39.5611 31.1111 39.9553 31.2574 40.246 31.5179C40.5367 31.7784 40.7 32.1316 40.7 32.5C40.7 32.8684 40.5367 33.2216 40.246 33.4821C39.9553 33.7426 39.5611 33.8889 39.15 33.8889H20.55C20.1389 33.8889 19.7447 33.7426 19.454 33.4821C19.1633 33.2216 19 32.8684 19 32.5ZM19 38.0556C19 37.6872 19.1633 37.3339 19.454 37.0735C19.7447 36.813 20.1389 36.6667 20.55 36.6667H39.15C39.5611 36.6667 39.9553 36.813 40.246 37.0735C40.5367 37.3339 40.7 37.6872 40.7 38.0556C40.7 38.4239 40.5367 38.7772 40.246 39.0376C39.9553 39.2981 39.5611 39.4444 39.15 39.4444H20.55C20.1389 39.4444 19.7447 39.2981 19.454 39.0376C19.1633 38.7772 19 38.4239 19 38.0556ZM19 43.6111C19 43.2428 19.1633 42.8895 19.454 42.629C19.7447 42.3685 20.1389 42.2222 20.55 42.2222H39.15C39.5611 42.2222 39.9553 42.3685 40.246 42.629C40.5367 42.8895 40.7 43.2428 40.7 43.6111C40.7 43.9795 40.5367 44.3327 40.246 44.5932C39.9553 44.8537 39.5611 45 39.15 45H20.55C20.1389 45 19.7447 44.8537 19.454 44.5932C19.1633 44.3327 19 43.9795 19 43.6111ZM45.35 20C44.9389 20 44.5447 20.1463 44.254 20.4068C43.9633 20.6673 43.8 21.0205 43.8 21.3889C43.8 21.7572 43.9633 22.1105 44.254 22.371C44.5447 22.6314 44.9389 22.7778 45.35 22.7778H48.45C48.8611 22.7778 49.2553 22.6314 49.546 22.371C49.8367 22.1105 50 21.7572 50 21.3889C50 21.0205 49.8367 20.6673 49.546 20.4068C49.2553 20.1463 48.8611 20 48.45 20H45.35ZM45.35 25.5556C44.9389 25.5556 44.5447 25.7019 44.254 25.9624C43.9633 26.2228 43.8 26.5761 43.8 26.9444C43.8 27.3128 43.9633 27.6661 44.254 27.9265C44.5447 28.187 44.9389 28.3333 45.35 28.3333H48.45C48.8611 28.3333 49.2553 28.187 49.546 27.9265C49.8367 27.6661 50 27.3128 50 26.9444C50 26.5761 49.8367 26.2228 49.546 25.9624C49.2553 25.7019 48.8611 25.5556 48.45 25.5556H45.35ZM45.35 31.1111C44.9389 31.1111 44.5447 31.2574 44.254 31.5179C43.9633 31.7784 43.8 32.1316 43.8 32.5C43.8 32.8684 43.9633 33.2216 44.254 33.4821C44.5447 33.7426 44.9389 33.8889 45.35 33.8889H48.45C48.8611 33.8889 49.2553 33.7426 49.546 33.4821C49.8367 33.2216 50 32.8684 50 32.5C50 32.1316 49.8367 31.7784 49.546 31.5179C49.2553 31.2574 48.8611 31.1111 48.45 31.1111H45.35ZM45.35 36.6667C44.9389 36.6667 44.5447 36.813 44.254 37.0735C43.9633 37.3339 43.8 37.6872 43.8 38.0556C43.8 38.4239 43.9633 38.7772 44.254 39.0376C44.5447 39.2981 44.9389 39.4444 45.35 39.4444H48.45C48.8611 39.4444 49.2553 39.2981 49.546 39.0376C49.8367 38.7772 50 38.4239 50 38.0556C50 37.6872 49.8367 37.3339 49.546 37.0735C49.2553 36.813 48.8611 36.6667 48.45 36.6667H45.35ZM45.35 42.2222C44.9389 42.2222 44.5447 42.3685 44.254 42.629C43.9633 42.8895 43.8 43.2428 43.8 43.6111C43.8 43.9795 43.9633 44.3327 44.254 44.5932C44.5447 44.8537 44.9389 45 45.35 45H48.45C48.8611 45 49.2553 44.8537 49.546 44.5932C49.8367 44.3327 50 43.9795 50 43.6111C50 43.2428 49.8367 42.8895 49.546 42.629C49.2553 42.3685 48.8611 42.2222 48.45 42.2222H45.35Z" fill="#F5F5F5"/>
</svg>
