<svg width="67" height="62" viewBox="0 0 67 62" fill="none" xmlns="http://www.w3.org/2000/svg">
<rect width="67" height="62" rx="10" fill="#9ABC05"/>
<path d="M38.5311 23.2812L22.9479 24.7025L22.3914 26.585L25.4575 26.99C27.4518 27.3388 27.8486 27.86 27.4157 29.3113L22.3914 46.475C21.0773 50.9113 23.1128 53 27.8898 53C31.6001 53 35.8978 51.755 37.8508 50.0413L38.4486 47.9825C37.0933 48.8525 35.0991 49.2013 33.785 49.2013C31.9144 49.2013 31.2393 48.245 31.7134 46.5612L38.5311 23.2812ZM39 12.95C39 14.2628 38.2833 15.5219 37.0077 16.4502C35.732 17.3785 34.0019 17.9 32.1978 17.9C30.3938 17.9 28.6636 17.3785 27.388 16.4502C26.1123 15.5219 25.3956 14.2628 25.3956 12.95C25.3956 11.6372 26.1123 10.3781 27.388 9.44982C28.6636 8.52152 30.3938 8 32.1978 8C34.0019 8 35.732 8.52152 37.0077 9.44982C38.2833 10.3781 39 11.6372 39 12.95Z" fill="#FAFAFA" fill-opacity="0.85098"/>
</svg>
